<?xml version="1.0" standalone="no"?>
<!DOCTYPE svg PUBLIC "-//W3C//DTD SVG 20010904//EN"
 "http://www.w3.org/TR/2001/REC-SVG-20010904/DTD/svg10.dtd">
<svg version="1.0" xmlns="http://www.w3.org/2000/svg"
 width="260.000000pt" height="260.000000pt" viewBox="0 0 260.000000 260.000000"
 preserveAspectRatio="xMidYMid meet">
<metadata>
Created by potrace 1.14, written by Peter Selinger 2001-2017
</metadata>
<g transform="translate(0.000000,260.000000) scale(0.100000,-0.100000)"
fill="#000000" stroke="none">
<path d="M0 1300 l0 -1300 1300 0 1300 0 0 1300 0 1300 -1300 0 -1300 0 0
-1300z m1415 1031 c106 -20 212 -100 255 -195 28 -59 41 -159 33 -249 -5 -68
-4 -79 12 -91 16 -12 17 -23 11 -105 -7 -97 -18 -127 -48 -134 -12 -4 -18 -15
-18 -36 0 -17 -4 -31 -10 -31 -5 0 -10 -7 -10 -16 0 -31 -70 -132 -128 -186
-80 -74 -134 -92 -260 -86 -93 4 -124 13 -160 45 -7 7 -16 13 -20 13 -25 0
-131 125 -158 186 -9 22 -27 45 -38 50 -29 13 -58 76 -76 163 -9 45 -8 57 4
70 14 15 13 24 -1 76 -17 63 -23 222 -11 266 8 29 56 92 113 150 43 43 139 92
220 112 64 16 201 16 290 -2z m-1233 -363 c8 -7 29 -33 45 -58 17 -25 47 -62
67 -82 41 -42 78 -51 69 -18 -3 11 -9 23 -14 26 -14 8 -10 40 6 54 22 18 61
-4 70 -39 4 -14 30 -49 59 -77 29 -28 62 -64 74 -79 25 -32 29 -77 7 -98 -7
-8 -17 -26 -21 -41 -6 -25 -9 -26 -73 -26 -62 0 -69 2 -79 24 -6 14 -28 32
-49 42 -49 23 -110 68 -150 113 -47 52 -86 127 -78 151 4 11 2 20 -4 20 -6 0
-11 18 -11 40 0 33 4 42 23 50 31 12 41 12 59 -2z m2314 -168 c-3 -63 -27 -93
-136 -169 -79 -55 -192 -111 -223 -111 -15 0 -30 -7 -33 -15 -4 -9 -19 -15
-41 -15 -46 0 -72 31 -73 87 0 46 20 68 82 94 35 14 98 69 98 86 0 5 10 19 21
32 19 20 23 21 37 8 13 -14 13 -20 -2 -56 -8 -23 -12 -41 -8 -41 13 0 56 33
86 67 18 19 39 33 53 33 13 0 23 4 23 9 0 12 39 26 63 22 9 -1 17 3 17 8 0 6
9 11 19 11 16 0 19 -7 17 -50z m-1961 -532 c-5 -168 -15 -357 -21 -394 -5 -37
-34 -66 -66 -68 -45 -3 -78 51 -78 125 0 25 -4 38 -10 34 -7 -4 -9 44 -6 142
2 81 5 178 5 216 l1 67 89 0 89 0 -3 -122z m275 -105 c11 -10 20 -23 20 -30 0
-7 9 -13 21 -13 11 0 18 -4 14 -9 -3 -5 4 -12 15 -16 11 -3 20 -13 20 -21 0
-8 7 -14 15 -14 8 0 15 -4 15 -10 0 -5 7 -10 15 -10 27 0 164 -144 171 -179 4
-17 10 -31 15 -31 12 0 11 -97 -1 -120 -7 -13 -7 -21 0 -25 12 -8 13 -52 1
-59 -4 -3 -8 -28 -7 -56 2 -42 -1 -50 -15 -50 -10 0 -21 -5 -24 -10 -4 -6 -11
-7 -17 -4 -6 4 -9 3 -6 -2 6 -10 -17 -36 -25 -28 -2 3 -4 -14 -3 -36 1 -23 -2
-43 -6 -46 -4 -3 -8 -29 -8 -59 0 -42 4 -55 18 -59 9 -3 -5 -3 -32 -1 -27 3
-51 6 -52 8 -1 1 -5 22 -8 47 -18 152 -42 293 -66 385 -5 17 -11 83 -14 149
-4 65 -10 123 -14 130 -4 6 -14 34 -22 61 l-16 50 -49 1 c-73 2 -75 3 -75 16
0 20 51 58 76 58 13 0 33 -8 44 -17z"/>
<path d="M935 2060 c-10 -15 59 -41 158 -58 76 -14 110 -14 240 -4 84 6 166
16 182 20 31 10 55 -3 55 -29 0 -6 13 -33 28 -58 16 -25 31 -54 35 -63 3 -10
11 -18 17 -18 6 0 0 17 -13 38 -32 51 -51 127 -37 152 9 17 8 20 -11 20 -11 0
-49 -8 -83 -17 -96 -26 -355 -24 -463 5 -93 25 -99 26 -108 12z"/>
<path d="M1377 1883 c-21 -20 -1 -28 73 -30 80 -2 91 2 68 25 -13 13 -130 17
-141 5z"/>
<path d="M1024 1859 c-39 -11 -56 -30 -44 -49 7 -11 11 -11 24 -1 8 7 40 15
70 18 35 4 56 10 56 18 0 25 -48 31 -106 14z"/>
<path d="M1406 1784 c-25 -25 -29 -59 -11 -88 21 -31 68 -36 84 -8 6 9 11 13
11 8 0 -19 30 18 30 38 0 51 -79 85 -114 50z m39 -13 c7 -12 -12 -24 -25 -16
-11 7 -4 25 10 25 5 0 11 -4 15 -9z"/>
<path d="M1647 1748 c-4 -30 -2 -47 9 -58 12 -12 14 -9 14 30 0 64 -16 83 -23
28z"/>
<path d="M1026 1754 c-19 -18 -21 -85 -4 -102 17 -17 67 -15 74 3 4 8 11 12
16 9 6 -4 14 0 19 7 37 58 -56 132 -105 83z m44 -19 c0 -2 -7 -5 -15 -9 -9 -3
-15 0 -15 9 0 9 6 12 15 9 8 -4 15 -7 15 -9z"/>
<path d="M860 1668 c0 -36 4 -48 15 -48 18 0 18 5 0 55 l-14 40 -1 -47z"/>
<path d="M1212 1510 c5 -23 62 -35 98 -20 51 21 37 35 -35 35 -52 0 -65 -3
-63 -15z"/>
<path d="M1287 1429 c-134 -12 -146 -21 -71 -58 35 -18 57 -22 90 -18 47 5
114 48 114 73 0 15 1 15 -133 3z"/>
</g>
</svg>
